<?xml version="1.0" encoding="utf-8"?>
<!-- Generator: Adobe Illustrator 25.2.1, SVG Export Plug-In . SVG Version: 6.00 Build 0)  -->
<svg version="1.0" id="Layer_1" xmlns="http://www.w3.org/2000/svg" xmlns:xlink="http://www.w3.org/1999/xlink" x="0px" y="0px"
	 viewBox="0 0 128.91 130.78" style="enable-background:new 0 0 128.91 130.78;" xml:space="preserve">
<style type="text/css">
	.st0{fill:#070402;}
	.st1{fill:#FBA354;}
	.st2{fill:#FDA658;}
	.st3{fill:#FCA455;}
	.st4{fill:#F9A04F;}
	.st5{fill:#FCA556;}
	.st6{fill:#FCA658;}
	.st7{fill:#110800;}
	.st8{fill:#140900;}
</style>
<g>
	<path class="st0" d="M123.66,130.78c-39.46,0-78.93,0-118.39,0c-1.71-1.7-3.42-3.4-5.13-5.09c-0.05-1.04-0.1-2.08-0.15-3.12
		c0.41-4.06,0.89-8.11,1.22-12.17c0.41-5.06,1.21-9.87,6.9-12.54c-3.84-2.38-5.1-5.48-4.6-9.35C4.06,84.3,4.8,80.1,4.99,75.87
		c0.2-4.57,1.55-8.31,6.34-10.8c-4.08-2.38-4.56-5.7-4.07-9.47c0.57-4.37,0.86-8.78,1.38-13.16c0.48-3.99,1.82-7.58,5.92-9.73
		c-2.99-2.37-4.15-5.03-3.78-8.32c0.59-5.22,1.09-10.45,1.75-15.66c0.76-6.07,3.66-8.56,9.79-8.59c1.87-0.01,3.76,0.17,5.61-0.03
		c4.39-0.48,7.71,0.84,9.45,5.64c2.29-4.88,6.02-6.17,10.68-5.63c1.51,0.17,3.07,0.15,4.59,0c5.03-0.5,9.44,0.29,12.06,6.73
		c1.99-6.53,6.2-7.1,10.92-6.73c1.52,0.12,3.07,0.15,4.59-0.01c4.79-0.5,8.9,0.46,11.51,5.6c1.74-4.86,4.92-6.08,9.13-5.61
		c1.85,0.21,3.74,0.03,5.61,0.04c6.57,0.02,9.46,2.74,10.06,9.41c0.38,4.22,0.45,8.51,1.31,12.63c0.87,4.19,0.13,7.6-3.35,10.68
		c4.17,2.05,5.28,5.61,5.81,9.39c0.57,4.03,0.99,8.09,1.33,12.14c0.17,2.02,0.43,4.18-0.11,6.06c-0.51,1.76-2.03,3.23-3.21,4.98
		c3.91,2.17,5.47,5.46,5.59,9.73c0.1,3.55,0.4,7.16,1.15,10.62c1.05,4.81,0.52,8.95-3.98,12.23c4.61,2.21,6.01,5.92,6.45,10.16
		c0.46,4.39,0.77,8.8,1.31,13.19C129.35,125.8,127.89,129.01,123.66,130.78z M62.01,85.38c1.5-6.31,5.66-8.24,11.99-5.95
		c1.09-0.75,2.2-1.51,3.27-2.25c-0.8-1.11-1.57-2.16-2.23-3.08c0.8-1.93,1.5-3.63,2.23-5.39c1.72-0.16,3.34-0.31,4.99-0.46
		c0-2.14,0-3.92,0-5.72c-1.92-0.29-3.55-0.54-5.04-0.76c-0.82-1.95-1.53-3.65-2.32-5.52c1.02-1.22,2.08-2.47,3.36-3.99
		c-1.58-1.51-2.97-2.84-4.39-4.2c-1.47,1.26-2.61,2.24-3.87,3.33c-1.9-0.84-3.7-1.64-5.39-2.39c-0.18-1.79-0.32-3.25-0.47-4.74
		c-2.28,0-4.23,0-6.4,0c-0.14,1.73-0.26,3.2-0.4,4.9c-1.9,0.75-3.72,1.48-5.42,2.15c-1.41-1.21-2.54-2.18-3.42-2.94
		c-1.79,1.38-3.35,2.58-4.95,3.81c1.51,1.69,2.52,2.81,3.58,4c-0.83,1.95-1.62,3.8-2.44,5.71c-1.6,0.25-3.2,0.5-5.03,0.78
		c0.09,2.08,0.17,3.84,0.25,5.68c1.93,0.14,3.42,0.25,4.83,0.35c0.82,2.02,1.58,3.86,2.29,5.59c-1.12,1.45-2.1,2.73-3.2,4.15
		c1.61,1.45,2.95,2.66,4.33,3.91c1.44-1.14,2.61-2.05,3.82-3c1.84,0.73,3.54,1.4,5.2,2.06c0.3,1.61,0.56,3.03,0.85,4.61
		C59.45,85.79,60.6,85.61,62.01,85.38z M15.33,126.69c2.55,0,5.1,0.08,7.65-0.02c3.38-0.14,4.72-1.19,4.98-4.47
		c0.43-5.25,0.67-10.52,0.72-15.78c0.03-3.02-1.29-4.19-4.45-4.29c-4.59-0.15-9.18-0.18-13.77-0.08c-3.17,0.07-4.68,1.44-5.05,4.58
		c-0.59,5.06-1.04,10.13-1.39,15.21c-0.26,3.82,0.65,4.7,4.67,4.84C10.91,126.75,13.12,126.69,15.33,126.69z M112.93,126.69
		c2.55,0,5.1,0.09,7.65-0.02c3.63-0.16,4.57-1.11,4.33-4.67c-0.34-5.08-0.82-10.15-1.38-15.21c-0.36-3.22-1.8-4.65-4.9-4.73
		c-4.76-0.12-9.52-0.01-14.28,0.06c-2.67,0.04-4.18,1.52-4.12,4.14c0.13,5.43,0.39,10.87,0.75,16.29c0.19,2.85,2,4.15,4.8,4.14
		C108.17,126.68,110.55,126.68,112.93,126.69z M18.24,93.89c0,0.02,0,0.04,0,0.06c2.37,0,4.74,0.05,7.11-0.01
		c2.58-0.07,4.17-1.47,4.35-4.03c0.39-5.23,0.73-10.47,0.85-15.72c0.08-3.38-1.19-4.67-4.47-4.8c-4.06-0.16-8.13-0.03-12.19-0.17
		C10.75,69.1,9,70.73,8.65,73.57C7.99,78.93,7.63,84.34,7.2,89.73c-0.22,2.78,1.3,4.07,3.93,4.15
		C13.49,93.94,15.87,93.89,18.24,93.89z M110.68,93.96c0-0.02,0-0.04,0-0.05c2.2,0,4.41,0.1,6.6-0.02c3.64-0.2,4.59-1.07,4.4-4.64
		c-0.27-5.06-0.7-10.12-1.3-15.15c-0.44-3.66-1.94-4.79-5.82-4.83c-3.73-0.04-7.45-0.01-11.18,0.11c-3.92,0.13-5.12,1.34-5,5.3
		c0.15,4.91,0.46,9.81,0.82,14.7c0.24,3.21,1.54,4.4,4.87,4.56C106.27,94.04,108.48,93.96,110.68,93.96z M61.2,104.4
		c5.02-1.31,7.02,0.63,5.97,5.7c1.12,0.46,2.19,0.9,3.22,1.32c3.31-4.51,5.4-4.25,8.56-0.12c0.99-0.49,2.01-0.99,2.94-1.46
		c-0.29-5.64,0.88-6.83,5.74-5.81c0.48-1.17,0.98-2.37,1.5-3.64c-4.63-2.76-4.51-5.5-0.07-8.16c-0.58-1.21-1.07-2.24-1.77-3.7
		c-3.01,1.86-4.83,0.35-6.31-2.02c0.25-1.07,0.5-2.15,0.76-3.27c-1.38-0.55-2.45-0.98-3.65-1.46c-2.65,4.47-5.42,4.44-8.17,0.21
		c-1.15,0.53-2.21,1.02-3.22,1.49c0.81,5.47-0.4,6.72-5.8,5.95c-0.23,0.57-0.48,1.18-0.72,1.8c-0.23,0.6-0.44,1.21-0.64,1.75
		c4.2,2.88,4.23,4.74,0.19,8.13C60.18,102.13,60.65,103.18,61.2,104.4z M31.66,48.35c0.11,0,0.23,0,0.34,0
		c0-2.37,0.05-4.75-0.01-7.12c-0.08-3.48-0.78-4.32-4.06-4.45c-3.73-0.14-7.46-0.05-11.2-0.08c-2.4-0.02-3.96,1.15-4.29,3.46
		c-0.79,5.52-1.58,11.05-2,16.61c-0.25,3.3,0.83,4.26,4.11,4.4c3.9,0.16,7.8,0.18,11.7,0.09c3.7-0.08,5.08-1.42,5.36-5.27
		C31.81,53.45,31.66,50.9,31.66,48.35z M96.93,48.18c0.12,0,0.24,0,0.37,0c0,2.71-0.18,5.44,0.04,8.14
		c0.29,3.52,1.72,4.85,5.16,4.93c3.9,0.1,7.81,0.07,11.7-0.08c3.56-0.14,4.56-1.06,4.29-4.74c-0.41-5.39-1.22-10.74-1.96-16.1
		c-0.32-2.3-1.74-3.62-4.16-3.61c-3.9,0.01-7.8,0.06-11.7,0.05c-2.59-0.01-3.68,1.4-3.73,3.8C96.89,43.1,96.93,45.64,96.93,48.18z
		 M60.58,16.54c0,0-0.01,0-0.01,0c0-2.54,0.09-5.08-0.02-7.62c-0.17-3.85-0.98-4.6-4.96-4.68c-3.21-0.07-6.43-0.06-9.65,0
		c-4.04,0.07-4.91,0.57-5.27,4.49c-0.5,5.38-0.55,10.8-0.71,16.21c-0.07,2.49,1.31,3.72,3.78,3.73c4.23,0.02,8.46,0.02,12.69,0.02
		c2.67,0,4.1-1.36,4.15-4.03C60.62,21.96,60.58,19.25,60.58,16.54z M89.01,18.19c0.04-0.01,0.08-0.01,0.12-0.02
		c-0.29-3.37-0.55-6.74-0.88-10.1c-0.26-2.59-1.66-3.91-4.37-3.86c-3.72,0.07-7.45-0.07-11.17,0.04c-3.27,0.1-4.19,0.96-4.29,4.3
		c-0.15,5.24-0.15,10.5-0.03,15.74c0.08,3.25,1.1,4.26,4.28,4.36c4.06,0.13,8.13,0.12,12.18-0.01c3.28-0.1,4.03-0.98,4.14-4.37
		C89.06,22.26,89.01,20.23,89.01,18.19z M23.05,28.64c2.04,0,4.17,0.37,6.08-0.12c1.38-0.36,3.41-1.77,3.53-2.89
		c0.66-6.06,0.89-12.16,1.11-18.26c0.07-1.95-1.11-3.13-3.2-3.13c-3.56,0-7.13,0-10.69-0.02c-2.72-0.02-4.01,1.57-4.34,4.02
		c-0.71,5.19-1.41,10.38-1.94,15.58c-0.32,3.17,1.11,4.64,4.37,4.81C19.65,28.72,21.35,28.65,23.05,28.64z M106.14,28.66
		c0,0,0-0.01,0-0.01c1.53,0,3.06,0.06,4.58-0.01c3.79-0.17,5.06-1.73,4.58-5.57c-0.61-4.86-1.24-9.71-1.85-14.57
		c-0.34-2.73-1.66-4.34-4.62-4.29c-3.05,0.05-6.11-0.03-9.16,0.03c-3.89,0.09-4.57,0.58-4.51,4.4c0.08,5.25,0.52,10.5,0.84,15.74
		c0.17,2.83,1.62,4.34,4.55,4.29C102.4,28.63,104.27,28.66,106.14,28.66z"/>
	<path class="st1" d="M62.01,85.38c-1.41,0.22-2.56,0.4-4,0.63c-0.29-1.58-0.56-3-0.85-4.61c-1.66-0.66-3.36-1.33-5.2-2.06
		c-1.21,0.95-2.37,1.87-3.82,3c-1.38-1.25-2.72-2.46-4.33-3.91c1.1-1.42,2.08-2.69,3.2-4.15c-0.71-1.73-1.46-3.57-2.29-5.59
		c-1.41-0.1-2.9-0.21-4.83-0.35c-0.08-1.83-0.16-3.6-0.25-5.68c1.83-0.28,3.43-0.53,5.03-0.78c0.82-1.92,1.61-3.76,2.44-5.71
		c-1.06-1.19-2.07-2.31-3.58-4c1.6-1.23,3.16-2.43,4.95-3.81c0.89,0.76,2.01,1.73,3.42,2.94c1.69-0.67,3.52-1.4,5.42-2.15
		c0.14-1.69,0.26-3.17,0.4-4.9c2.17,0,4.13,0,6.4,0c0.15,1.49,0.29,2.95,0.47,4.74c1.68,0.75,3.49,1.55,5.39,2.39
		c1.26-1.08,2.4-2.06,3.87-3.33c1.42,1.36,2.81,2.69,4.39,4.2c-1.28,1.52-2.34,2.77-3.36,3.99c0.79,1.87,1.5,3.57,2.32,5.52
		c1.49,0.23,3.12,0.47,5.04,0.76c0,1.8,0,3.58,0,5.72c-1.64,0.15-3.27,0.3-4.99,0.46c-0.73,1.77-1.43,3.46-2.23,5.39
		c0.67,0.92,1.43,1.97,2.23,3.08c-1.07,0.74-2.17,1.49-3.27,2.25C67.67,77.14,63.51,79.07,62.01,85.38z M67.52,65.84
		c-0.08-3.39-3.12-6.42-6.51-6.49c-3.59-0.07-6.82,3.16-6.75,6.75c0.07,3.36,3.14,6.43,6.51,6.49
		C64.37,72.67,67.6,69.42,67.52,65.84z"/>
	<path class="st2" d="M15.33,126.69c-2.21,0-4.42,0.06-6.63-0.01c-4.02-0.14-4.93-1.01-4.67-4.84c0.35-5.08,0.8-10.16,1.39-15.21
		c0.36-3.14,1.88-4.5,5.05-4.58c4.59-0.11,9.18-0.07,13.77,0.08c3.16,0.1,4.47,1.27,4.45,4.29c-0.05,5.26-0.29,10.53-0.72,15.78
		c-0.27,3.28-1.61,4.33-4.98,4.47C20.44,126.77,17.88,126.69,15.33,126.69z"/>
	<path class="st2" d="M112.93,126.68c-2.38,0-4.76-0.01-7.14,0c-2.8,0.01-4.62-1.29-4.8-4.14c-0.36-5.42-0.62-10.86-0.75-16.29
		c-0.06-2.62,1.45-4.1,4.12-4.14c4.76-0.07,9.52-0.18,14.28-0.06c3.1,0.08,4.55,1.52,4.9,4.73c0.57,5.06,1.04,10.13,1.38,15.21
		c0.24,3.56-0.71,4.51-4.33,4.67C118.04,126.77,115.48,126.69,112.93,126.68z"/>
	<path class="st3" d="M18.24,93.89c-2.37,0-4.74,0.06-7.11-0.01c-2.63-0.08-4.15-1.37-3.93-4.15c0.43-5.39,0.8-10.79,1.45-16.16
		c0.35-2.84,2.1-4.47,5.24-4.35c4.06,0.15,8.13,0.01,12.19,0.17c3.29,0.13,4.56,1.42,4.47,4.8c-0.13,5.24-0.47,10.49-0.85,15.72
		c-0.19,2.56-1.77,3.96-4.35,4.03c-2.37,0.06-4.74,0.01-7.11,0.01C18.24,93.93,18.24,93.91,18.24,93.89z"/>
	<path class="st3" d="M110.68,93.96c-2.2,0-4.41,0.09-6.6-0.02c-3.33-0.16-4.63-1.35-4.87-4.56c-0.36-4.89-0.67-9.8-0.82-14.7
		c-0.12-3.97,1.08-5.18,5-5.3c3.72-0.12,7.45-0.15,11.18-0.11c3.88,0.04,5.38,1.18,5.82,4.83c0.6,5.03,1.04,10.09,1.3,15.15
		c0.19,3.57-0.76,4.44-4.4,4.64c-2.2,0.12-4.4,0.02-6.6,0.02C110.68,93.92,110.68,93.94,110.68,93.96z"/>
	<path class="st4" d="M61.2,104.4c-0.54-1.22-1.02-2.27-1.47-3.28c4.04-3.38,4.02-5.25-0.19-8.13c0.2-0.54,0.41-1.15,0.64-1.75
		c0.24-0.62,0.49-1.23,0.72-1.8c5.39,0.76,6.6-0.48,5.8-5.95c1.01-0.47,2.07-0.96,3.22-1.49c2.75,4.23,5.52,4.25,8.17-0.21
		c1.19,0.48,2.26,0.9,3.65,1.46c-0.26,1.12-0.51,2.19-0.76,3.27c1.47,2.36,3.29,3.88,6.31,2.02c0.7,1.46,1.19,2.49,1.77,3.7
		c-4.43,2.66-4.56,5.4,0.07,8.16c-0.52,1.26-1.02,2.47-1.5,3.64c-4.86-1.02-6.03,0.16-5.74,5.81c-0.93,0.46-1.95,0.97-2.94,1.46
		c-3.16-4.13-5.25-4.38-8.56,0.12c-1.03-0.42-2.1-0.86-3.22-1.32C68.21,105.03,66.22,103.09,61.2,104.4z M78.75,96.66
		c-0.02-2.3-2.44-4.62-4.67-4.46c-2,0.14-4.22,2.51-4.19,4.48c0.03,2.3,2.45,4.55,4.75,4.4C76.83,100.94,78.77,98.86,78.75,96.66z"
		/>
	<path class="st5" d="M31.66,48.35c0,2.54,0.15,5.1-0.03,7.63c-0.28,3.85-1.66,5.19-5.36,5.27c-3.9,0.08-7.81,0.07-11.7-0.09
		c-3.28-0.14-4.36-1.1-4.11-4.4c0.42-5.55,1.21-11.09,2-16.61c0.33-2.31,1.89-3.48,4.29-3.46c3.73,0.04,7.47-0.05,11.2,0.08
		c3.28,0.12,3.98,0.96,4.06,4.45c0.06,2.37,0.01,4.75,0.01,7.12C31.89,48.35,31.78,48.35,31.66,48.35z"/>
	<path class="st5" d="M96.93,48.18c0-2.54-0.04-5.09,0.01-7.63c0.04-2.4,1.14-3.81,3.73-3.8c3.9,0.02,7.8-0.04,11.7-0.05
		c2.42,0,3.84,1.31,4.16,3.61c0.74,5.36,1.56,10.71,1.96,16.1c0.28,3.68-0.72,4.6-4.29,4.74c-3.9,0.15-7.8,0.18-11.7,0.08
		c-3.45-0.08-4.87-1.41-5.16-4.93c-0.22-2.7-0.04-5.42-0.04-8.14C97.17,48.18,97.05,48.18,96.93,48.18z"/>
	<path class="st6" d="M60.58,16.54c0,2.71,0.04,5.42-0.01,8.12c-0.05,2.67-1.48,4.02-4.15,4.03c-4.23,0.01-8.46,0-12.69-0.02
		c-2.46-0.01-3.85-1.24-3.78-3.73c0.16-5.41,0.21-10.83,0.71-16.21c0.36-3.92,1.23-4.42,5.27-4.49c3.21-0.06,6.43-0.07,9.65,0
		c3.99,0.08,4.8,0.83,4.96,4.68c0.11,2.53,0.02,5.08,0.02,7.62C60.57,16.54,60.58,16.54,60.58,16.54z"/>
	<path class="st6" d="M89.01,18.19c0,2.03,0.05,4.06-0.01,6.09c-0.11,3.39-0.86,4.27-4.14,4.37c-4.06,0.13-8.13,0.14-12.18,0.01
		c-3.18-0.1-4.2-1.11-4.28-4.36c-0.13-5.24-0.12-10.5,0.03-15.74c0.1-3.35,1.01-4.2,4.29-4.3c3.72-0.11,7.45,0.02,11.17-0.04
		c2.71-0.05,4.11,1.27,4.37,3.86c0.34,3.36,0.59,6.73,0.88,10.1C89.09,18.18,89.05,18.19,89.01,18.19z"/>
	<path class="st5" d="M23.05,28.64c-1.7,0-3.4,0.07-5.09-0.01c-3.26-0.17-4.69-1.64-4.37-4.81c0.53-5.21,1.23-10.4,1.94-15.58
		c0.34-2.45,1.62-4.04,4.34-4.02c3.56,0.03,7.13,0.02,10.69,0.02c2.09,0,3.27,1.18,3.2,3.13c-0.22,6.1-0.45,12.2-1.11,18.26
		c-0.12,1.12-2.14,2.53-3.53,2.89C27.22,29.02,25.08,28.64,23.05,28.64z"/>
	<path class="st5" d="M106.14,28.66c-1.87,0-3.73-0.03-5.6,0.01c-2.93,0.05-4.38-1.46-4.55-4.29c-0.32-5.25-0.75-10.49-0.84-15.74
		c-0.06-3.82,0.62-4.31,4.51-4.4c3.05-0.07,6.11,0.02,9.16-0.03c2.96-0.05,4.28,1.56,4.62,4.29c0.61,4.86,1.24,9.71,1.85,14.57
		c0.48,3.84-0.78,5.4-4.58,5.57c-1.52,0.07-3.05,0.01-4.58,0.01C106.14,28.65,106.14,28.66,106.14,28.66z"/>
	<path class="st7" d="M67.52,65.84c0.08,3.59-3.16,6.83-6.74,6.76c-3.36-0.07-6.44-3.13-6.51-6.49c-0.08-3.59,3.16-6.82,6.75-6.75
		C64.4,59.41,67.44,62.45,67.52,65.84z"/>
	<path class="st8" d="M78.75,96.66c0.02,2.2-1.92,4.28-4.12,4.42c-2.29,0.15-4.71-2.1-4.75-4.4c-0.03-1.97,2.2-4.34,4.19-4.48
		C76.31,92.04,78.73,94.35,78.75,96.66z"/>
</g>
</svg>
